<svg id='Procurement_48' width='48' height='48' viewBox='0 0 48 48' xmlns='http://www.w3.org/2000/svg' xmlns:xlink='http://www.w3.org/1999/xlink'><rect width='48' height='48' stroke='none' fill='#000000' opacity='0'/>


<g transform="matrix(0.92 0 0 0.92 24 24)" >
<g style="" >
<g transform="matrix(0.71 -0.71 0.71 0.71 8 -8.07)" >
<path style="stroke: none; stroke-width: 1; stroke-dasharray: none; stroke-linecap: butt; stroke-dashoffset: 0; stroke-linejoin: miter; stroke-miterlimit: 4; fill: rgb(245,124,0); fill-rule: nonzero; opacity: 1;" transform=" translate(-32, -15.93)" d="M 25.65 9.579 L 38.349999999999994 9.579 L 38.349999999999994 22.279 L 25.65 22.279 z" stroke-linecap="round" />
</g>
<g transform="matrix(0.71 -0.71 0.71 0.71 -1 -10.07)" >
<path style="stroke: none; stroke-width: 1; stroke-dasharray: none; stroke-linecap: butt; stroke-dashoffset: 0; stroke-linejoin: miter; stroke-miterlimit: 4; fill: rgb(255,152,0); fill-rule: nonzero; opacity: 1;" transform=" translate(-23, -13.93)" d="M 15.95 6.879 L 30.049999999999997 6.879 L 30.049999999999997 20.979 L 15.95 20.979 z" stroke-linecap="round" />
</g>
<g transform="matrix(1 0 0 1 0.5 6)" >
<path style="stroke: none; stroke-width: 1; stroke-dasharray: none; stroke-linecap: butt; stroke-dashoffset: 0; stroke-linejoin: miter; stroke-miterlimit: 4; fill: rgb(0,150,136); fill-rule: nonzero; opacity: 1;" transform=" translate(-24.5, -30)" d="M 18 34 C 16.9 34 16 33.1 16 32 L 16 22 L 12 22 L 12 32 C 12 35.3 14.7 38 18 38 L 37 38 L 37 34 L 18 34 z" stroke-linecap="round" />
</g>
<g transform="matrix(1 0 0 1 0.7 -5)" >
<path style="stroke: none; stroke-width: 1; stroke-dasharray: none; stroke-linecap: butt; stroke-dashoffset: 0; stroke-linejoin: miter; stroke-miterlimit: 4; fill: rgb(0,150,136); fill-rule: nonzero; opacity: 1;" transform=" translate(-24.7, -19)" d="M 12.8 12 L 12.4 10.7 C 11.8 9.1 10.3 8 8.6 8 L 5 8 L 5 12 L 8.6 12 L 14.1 28.6 C 14.4 29.400000000000002 15.1 30 16 30 L 35 30 C 35.8 30 36.5 29.5 36.8 28.8 L 44.4 12 L 12.8 12 z" stroke-linecap="round" />
</g>
<g transform="matrix(1 0 0 1 -19 -14)" >
<path style="stroke: none; stroke-width: 1; stroke-dasharray: none; stroke-linecap: butt; stroke-dashoffset: 0; stroke-linejoin: miter; stroke-miterlimit: 4; fill: rgb(0,105,92); fill-rule: nonzero; opacity: 1;" transform=" translate(-5, -10)" d="M 5 8 C 3.895430500338413 8 3 8.895430500338414 3 10 C 3 11.104569499661586 3.895430500338413 12 5 12 C 6.1045694996615865 12 7 11.104569499661586 7 10 C 7 8.895430500338414 6.1045694996615865 8 5 8 Z" stroke-linecap="round" />
</g>
<g transform="matrix(1 0 0 1 2.5 17)" >
<path style="stroke: none; stroke-width: 1; stroke-dasharray: none; stroke-linecap: butt; stroke-dashoffset: 0; stroke-linejoin: miter; stroke-miterlimit: 4; fill: rgb(55,71,79); fill-rule: nonzero; opacity: 1;" transform=" translate(-26.5, -41)" d="M 34 38 C 32.34314575050762 38 31 39.34314575050762 31 41 C 31 42.65685424949238 32.34314575050762 44 34 44 C 35.65685424949238 44 37 42.65685424949238 37 41 C 37 39.34314575050762 35.65685424949238 38 34 38 z M 19 38 C 17.34314575050762 38 16 39.34314575050762 16 41 C 16 42.65685424949238 17.34314575050762 44 19 44 C 20.65685424949238 44 22 42.65685424949238 22 41 C 22 39.34314575050762 20.65685424949238 38 19 38 z" stroke-linecap="round" />
</g>
<g transform="matrix(1 0 0 1 2.5 17)" >
<path style="stroke: none; stroke-width: 1; stroke-dasharray: none; stroke-linecap: butt; stroke-dashoffset: 0; stroke-linejoin: miter; stroke-miterlimit: 4; fill: rgb(96,125,139); fill-rule: nonzero; opacity: 1;" transform=" translate(-26.5, -41)" d="M 34 40 C 33.4477152501692 40 33 40.4477152501692 33 41 C 33 41.5522847498308 33.4477152501692 42 34 42 C 34.5522847498308 42 35 41.5522847498308 35 41 C 35 40.4477152501692 34.5522847498308 40 34 40 z M 19 40 C 18.447715250169207 40 18 40.4477152501692 18 41 C 18 41.5522847498308 18.447715250169207 42 19 42 C 19.552284749830793 42 20 41.5522847498308 20 41 C 20 40.4477152501692 19.552284749830793 40 19 40 z" stroke-linecap="round" />
</g>
<g transform="matrix(1 0 0 1 14 14)" >
<path style="stroke: none; stroke-width: 1; stroke-dasharray: none; stroke-linecap: butt; stroke-dashoffset: 0; stroke-linejoin: miter; stroke-miterlimit: 4; fill: rgb(0,172,193); fill-rule: nonzero; opacity: 1;" transform=" translate(-38, -38)" d="M 48 38 C 48 43.5 43.5 48 38 48 C 32.5 48 28 43.5 28 38 C 28 32.5 32.5 28 38 28 C 43.5 28 48 32.5 48 38" stroke-linecap="round" />
</g>
<g transform="matrix(1 0 0 1 14 14)" >
<path style="stroke: none; stroke-width: 1; stroke-dasharray: none; stroke-linecap: butt; stroke-dashoffset: 0; stroke-linejoin: miter; stroke-miterlimit: 4; fill: rgb(238,238,238); fill-rule: nonzero; opacity: 1;" transform=" translate(-38, -38)" d="M 45 38 C 45 41.9 41.9 45 38 45 C 34.1 45 31 41.9 31 38 C 31 34.1 34.1 31 38 31 C 41.9 31 45 34.1 45 38" stroke-linecap="round" />
</g>
<g transform="matrix(1 0 0 1 15.45 13.7)" >
<path style="stroke: none; stroke-width: 1; stroke-dasharray: none; stroke-linecap: butt; stroke-dashoffset: 0; stroke-linejoin: miter; stroke-miterlimit: 4; fill: rgb(0,0,0); fill-rule: nonzero; opacity: 1;" transform=" translate(-39.45, -37.7)" d="M 42.4 41.1 L 39.5 38.2 C 39.5 38.1 39.5 38.1 39.5 38 C 39.5 37.6 39.3 37.2 39 36.9 L 39 33 L 37 33 L 37 36.9 C 36.7 37.199999999999996 36.5 37.6 36.5 38 C 36.5 38.8 37.2 39.5 38 39.5 L 38.1 39.5 L 41 42.4 L 42.4 41.1 z" stroke-linecap="round" />
</g>
</g>
</g>
</svg>